<svg xmlns="http://www.w3.org/2000/svg" display="block" style="background:#eee;width:814px;margin:auto" viewBox="0 0 814 250">
  <defs>
    <filter id="a" width="1.0011628" height="1.0085684" x="-.00115664" y="-.00004519" color-interpolation-filters="sRGB">
      <feFlood flood-color="#4A4E69" flood-opacity=".59514925" result="flood"/>
      <feComposite in="flood" in2="SourceGraphic" operator="out" result="composite1"/>
      <feGaussianBlur in="composite1" result="blur" stdDeviation=".00111053"/>
      <feOffset dx="-.5" dy=".5" result="offset"/>
      <feComposite in="offset" in2="SourceGraphic" operator="atop" result="composite2"/>
    </filter>
  </defs>
  <path fill="#fefae0" d="M0 0h814v250H0z" class="foodgrid" display="inline"/>
  <g fill="#d4a373" display="inline">
    <path fill="#faedcd" d="M501.0616439 455.41637584a137.32702224 137.32702224 0 0 0 102.09924729-47.7695506 137.32702224 137.32702224 0 0 0 13.2495135-18.7019954 137.32702224 137.32702224 0 0 0 161.16469034-35.13336186 137.32702224 137.32702224 0 0 0 22.9815172-38.1079656 137.32702224 137.32702224 0 0 0 120.56013593-46.69425948 137.32702224 137.32702224 0 0 0-14.57768372-193.66161678 137.32702224 137.32702224 0 0 0-193.66160148 14.57777523 137.32702224 137.32702224 0 0 0-23.16959357 38.0777978 137.32702224 137.32702224 0 0 0-120.37398796 46.72455531 137.32702224 137.32702224 0 0 0-13.46145106 18.60888432 137.32702224 137.32702224 0 0 0-160.95082981 35.22634445 137.32702224 137.32702224 0 0 0 14.57777611 193.6615756 137.32702224 137.32702224 0 0 0 91.56234084 33.19185073Z"/>
    <path fill="#e9edc9" d="M450.52305015-248.012341a149.93937009 149.93937009 0 0 0-103.23785138 45.24837806A149.93937009 149.93937009 0 0 0 155.0049354-171.2769504a149.93937009 149.93937009 0 0 0-5.62359024 7.5617769A149.93937009 149.93937009 0 0 0-57.1296327-177.10186604a149.93937009 149.93937009 0 0 0-51.89805432 92.98608162 149.93937009 149.93937009 0 0 0-86.1235101 166.29504256A149.93937009 149.93937009 0 0 0-18.68403983 199.74855741a149.93937009 149.93937009 0 0 0 78.33009406-42.78186433 149.93937009 149.93937009 0 0 0 200.65699067-26.0309654 149.93937009 149.93937009 0 0 0 14.47378167-20.473583 149.93937009 149.93937009 0 0 0 175.32931616-40.30597251 149.93937009 149.93937009 0 0 0 13.51008113-18.8591902A149.93937009 149.93937009 0 0 0 569.0129164-1.5565139a149.93937009 149.93937009 0 0 0-18.14062-211.26886712A149.93937009 149.93937009 0 0 0 450.52305015-248.012341z" display="inline"/>
  </g>
  <g fill="#4a4e69" aria-label="Astro Cooklang" class="title" display="inline" filter="url(#a)" font-family="Lato" font-size="64" font-weight="600" text-anchor="middle">
    <path d="m219.90605 125.34199-6.336-16.832q-.768-1.952-1.568-4.96-.352 1.504-.768 2.784-.416 1.248-.768 2.208l-6.336 16.8zm14.176 17.28h-5.792q-.992 0-1.6-.48-.608-.512-.928-1.248l-3.84-10.176h-19.84l-3.84 10.176q-.256.64-.896 1.184-.64.544-1.6.544h-5.792l18.272-46.079996h7.584zm23.58403-26.72q-.256.448-.576.64-.32.192-.8.192-.544 0-1.184-.32-.64-.352-1.504-.768-.864-.416-2.048-.736-1.152-.352-2.72-.352-1.28 0-2.336.32-1.024.288-1.76.864-.704.544-1.088 1.312-.384.736-.384 1.6 0 1.152.704 1.92t1.856 1.344q1.152.544 2.624.992 1.472.448 3.008.96t3.008 1.184q1.472.672 2.624 1.664 1.152.96 1.856 2.368.704 1.376.704 3.36 0 2.304-.832 4.256-.832 1.952-2.432 3.392t-4 2.24q-2.368.8-5.44.8-1.696 0-3.296-.32-1.568-.288-3.008-.8-1.408-.544-2.656-1.28-1.216-.736-2.176-1.6l1.6-2.624q.288-.48.704-.736.448-.288 1.088-.288.672 0 1.312.448.672.416 1.536.928.896.512 2.144.96 1.248.416 3.104.416 1.536 0 2.656-.352 1.12-.384 1.856-1.024t1.088-1.44q.352-.832.352-1.76 0-1.248-.704-2.048t-1.888-1.376q-1.152-.576-2.656-1.024-1.472-.448-3.008-.96t-3.04-1.184q-1.472-.672-2.656-1.696-1.152-1.056-1.856-2.528-.704-1.504-.704-3.648 0-1.952.768-3.712.8-1.76 2.304-3.104 1.536-1.344 3.744-2.112 2.24-.8 5.152-.8 3.296 0 5.984 1.056t4.512 2.88zm18.91204 27.232q-4.064 0-6.272-2.272-2.176-2.304-2.176-6.464v-19.008h-3.584q-.576 0-.992-.352-.416-.384-.416-1.12v-2.784l5.28-.768 1.504-9.44q.16-.544.544-.864.384-.351996 1.024-.351996h3.52v10.719996h9.056v4.96h-9.056v18.528q0 1.76.864 2.688.864.928 2.304.928.8 0 1.376-.192.576-.224.992-.448.416-.256.704-.448.32-.224.608-.224.576 0 .928.64l2.048 3.36q-1.6 1.408-3.776 2.176-2.176.736-4.48.736zm19.42397-27.104q1.536-3.104 3.712-4.864 2.176-1.792 5.216-1.792 1.056 0 1.984.256.928.224 1.664.704l-.48 5.184q-.128.544-.416.768-.256.192-.704.192-.48 0-1.376-.16-.896-.192-1.888-.192-1.44 0-2.56.416-1.088.416-1.984 1.216-.864.8-1.536 1.952t-1.248 2.624v20.288h-6.88v-32.64h4q1.088 0 1.504.416.416.384.576 1.376zm30.11197-6.56q3.616 0 6.528 1.184 2.944 1.184 4.992 3.36 2.08 2.176 3.2 5.28t1.12 6.976q0 3.872-1.12 6.976t-3.2 5.312q-2.048 2.176-4.992 3.36-2.912 1.184-6.528 1.184-3.648 0-6.592-1.184-2.912-1.184-4.992-3.36-2.08-2.208-3.2-5.312t-1.12-6.976q0-3.872 1.12-6.976t3.2-5.28q2.08-2.176 4.992-3.36 2.944-1.184 6.592-1.184zm0 28.256q4.416 0 6.56-2.944 2.176-2.976 2.176-8.48 0-5.504-2.176-8.48-2.144-3.008-6.56-3.008-4.48 0-6.656 3.008-2.176 2.976-2.176 8.48 0 5.504 2.176 8.48 2.176 2.944 6.656 2.944zm71.64798-5.376q.608 0 1.056.48l2.976 3.232q-2.816 3.392-6.912 5.248-4.096 1.824-9.792 1.824-5.056 0-9.152-1.728-4.064-1.76-6.944-4.864-2.88-3.136-4.448-7.456-1.536-4.32-1.536-9.504 0-5.184 1.632-9.504 1.664-4.352 4.64-7.456 3.008-3.135996 7.168-4.863996 4.192-1.728 9.216-1.728 4.992 0 8.8 1.632 3.84 1.6 6.656 4.287996l-2.464 3.488q-.256.352-.608.608t-.96.256q-.64 0-1.472-.576-.8-.608-2.08-1.312-1.248-.736-3.168-1.312-1.888-.608-4.736-.608-3.296 0-6.048 1.152-2.752 1.152-4.736 3.36t-3.104 5.376q-1.088 3.168-1.088 7.2 0 4.064 1.152 7.264 1.152 3.168 3.168 5.376 2.016 2.176 4.736 3.328 2.72 1.152 5.856 1.152 1.92 0 3.424-.192 1.536-.224 2.816-.672 1.28-.48 2.4-1.184 1.152-.704 2.272-1.728.64-.576 1.28-.576zm22.68796-22.88q3.616 0 6.528 1.184 2.944 1.184 4.992 3.36 2.08 2.176 3.2 5.28t1.12 6.976q0 3.872-1.12 6.976t-3.2 5.312q-2.048 2.176-4.992 3.36-2.912 1.184-6.528 1.184-3.648 0-6.592-1.184-2.912-1.184-4.992-3.36-2.08-2.208-3.2-5.312t-1.12-6.976q0-3.872 1.12-6.976t3.2-5.28q2.08-2.176 4.992-3.36 2.944-1.184 6.592-1.184zm0 28.256q4.416 0 6.56-2.944 2.176-2.976 2.176-8.48 0-5.504-2.176-8.48-2.144-3.008-6.56-3.008-4.48 0-6.656 3.008-2.176 2.976-2.176 8.48 0 5.504 2.176 8.48 2.176 2.944 6.656 2.944zm36.54394-28.256q3.616 0 6.528 1.184 2.944 1.184 4.992 3.36 2.08 2.176 3.2 5.28t1.12 6.976q0 3.872-1.12 6.976t-3.2 5.312q-2.048 2.176-4.992 3.36-2.912 1.184-6.528 1.184-3.648 0-6.592-1.184-2.912-1.184-4.992-3.36-2.08-2.208-3.2-5.312t-1.12-6.976q0-3.872 1.12-6.976t3.2-5.28q2.08-2.176 4.992-3.36 2.944-1.184 6.592-1.184zm0 28.256q4.416 0 6.56-2.944 2.176-2.976 2.176-8.48 0-5.504-2.176-8.48-2.144-3.008-6.56-3.008-4.48 0-6.656 3.008-2.176 2.976-2.176 8.48 0 5.504 2.176 8.48 2.176 2.944 6.656 2.944zm29.31195-42.463996v27.455996h1.472q.704 0 1.152-.192.448-.192.928-.8l9.152-10.464q.48-.64 1.056-.96.576-.32 1.472-.32h6.24l-11.008 12.416q-.96 1.248-2.112 1.984.64.448 1.12 1.024.48.544.928 1.248l11.744 15.968h-6.144q-.832 0-1.44-.256-.576-.288-1.024-1.024l-9.44-12.8q-.48-.736-.96-.928-.48-.224-1.44-.224h-1.696v15.232h-6.88V95.261994Zm33.53596 0v47.359996h-6.88V95.261994Zm25.95202 33.087996q-3.68.128-6.208.608-2.528.448-4.096 1.184-1.568.704-2.272 1.696-.672.992-.672 2.176 0 1.152.352 1.984.384.8 1.024 1.344.672.512 1.536.768.896.224 1.952.224 2.688 0 4.608-.992 1.952-1.024 3.776-2.944zm-18.24-13.824q5.536-5.152 13.184-5.152 2.816 0 4.992.928 2.208.896 3.68 2.56 1.504 1.664 2.272 3.968.8 2.272.8 5.056v20.736h-3.072q-.992 0-1.504-.288-.512-.32-.864-1.248l-.672-2.656q-1.248 1.12-2.464 2.016-1.216.864-2.528 1.472-1.28.608-2.784.896-1.472.32-3.264.32-1.984 0-3.712-.544-1.696-.544-2.944-1.632-1.248-1.12-1.984-2.752-.704-1.632-.704-3.84 0-1.888.992-3.68 1.024-1.792 3.328-3.2 2.336-1.44 6.112-2.368 3.808-.928 9.376-1.056v-2.176q0-3.52-1.504-5.248-1.504-1.728-4.416-1.728-1.984 0-3.328.512-1.344.48-2.336 1.056-.992.576-1.76 1.088-.768.48-1.632.48-.704 0-1.216-.352-.48-.384-.8-.928zm39.39203-.224q1.056-1.088 2.176-1.952 1.152-.896 2.432-1.536t2.72-.992q1.44-.352 3.136-.352 2.688 0 4.704.896 2.048.896 3.424 2.528 1.408 1.632 2.112 3.936.704 2.272.704 5.024v20.768h-6.848v-20.768q0-3.296-1.536-5.12-1.504-1.824-4.608-1.824-2.304 0-4.288 1.056-1.952 1.056-3.68 2.88v23.776h-6.88v-32.64h4.16q1.408 0 1.792 1.312zm41.12005 11.712q3.2 0 4.8-1.632 1.6-1.632 1.6-4.256 0-2.688-1.6-4.256t-4.8-1.568q-3.168 0-4.8 1.568-1.6 1.568-1.6 4.256 0 1.28.416 2.368.416 1.088 1.216 1.888.8.768 1.984 1.216 1.216.416 2.784.416zm9.568 18.208q0-1.088-.64-1.728-.608-.672-1.664-1.024-1.056-.384-2.464-.544-1.408-.192-3.008-.256-1.568-.096-3.232-.16-1.632-.096-3.168-.32-1.536.8-2.528 1.92-.96 1.12-.96 2.592 0 .96.48 1.792.512.832 1.536 1.44 1.056.608 2.656.96 1.632.352 3.904.352 4.544 0 6.816-1.408 2.272-1.408 2.272-3.616zm6.912-33.056v2.56q0 1.28-1.536 1.568l-3.264.544q.832 1.856.832 4.128 0 2.4-.96 4.352-.928 1.952-2.592 3.328-1.664 1.376-3.968 2.112-2.304.736-4.992.736-1.024 0-2.016-.096-.96-.128-1.888-.32-.928.544-1.376 1.152-.448.608-.448 1.248 0 1.056.928 1.568t2.432.736q1.536.224 3.488.288 1.952.064 3.968.224t3.968.544q1.952.352 3.456 1.216 1.536.832 2.464 2.272.928 1.44.928 3.744 0 2.112-1.056 4.128t-3.072 3.584q-1.984 1.568-4.864 2.496-2.88.96-6.56.96-3.648 0-6.368-.704-2.688-.704-4.512-1.92-1.792-1.184-2.688-2.752-.864-1.568-.864-3.264 0-2.304 1.44-3.936 1.472-1.632 3.968-2.56-1.344-.64-2.176-1.76-.8-1.12-.8-2.944 0-1.44 1.056-3.008t3.168-2.656q-2.432-1.344-3.84-3.552-1.408-2.24-1.408-5.216 0-2.432.928-4.384.96-1.952 2.656-3.328 1.696-1.376 4-2.112 2.336-.736 5.088-.736 4.224 0 7.36 1.76z" style="-inkscape-font-specification:'Lato Semi-Bold';text-align:center"/>
  </g>
</svg>
