<?xml version="1.0" encoding="UTF-8" standalone="no"?>
<svg
   viewBox="0 0 814 250"
   version="1.1"
   id="svg115"
   sodipodi:docname="banner-source.svg"
   inkscape:version="1.2.2 (732a01da63, 2022-12-09)"
   xmlns:inkscape="http://www.inkscape.org/namespaces/inkscape"
   xmlns:sodipodi="http://sodipodi.sourceforge.net/DTD/sodipodi-0.dtd"
   xmlns="http://www.w3.org/2000/svg"
   xmlns:svg="http://www.w3.org/2000/svg">
  <sodipodi:namedview
     id="namedview117"
     pagecolor="#ffffff"
     bordercolor="#000000"
     borderopacity="0.25"
     inkscape:showpageshadow="2"
     inkscape:pageopacity="0.0"
     inkscape:pagecheckerboard="0"
     inkscape:deskcolor="#d1d1d1"
     showgrid="false"
     inkscape:zoom="0.5"
     inkscape:cx="356"
     inkscape:cy="-174"
     inkscape:window-width="1920"
     inkscape:window-height="1027"
     inkscape:window-x="-8"
     inkscape:window-y="-8"
     inkscape:window-maximized="1"
     inkscape:current-layer="g25454" />
  <style
     type="text/css"
     id="style2">
    svg {
      background: #eee;
      display: block;
      width: 814px;
      margin: auto;
    }

    svg text {
      text-anchor: middle;
    }

    .title {
      font-size: 5rem;
      font-weight: 600;
      font-family: system-ui;
    }

    .chef {
      font-size: 80px;
    }

    .food {
      font-size: 40px;
    }

    .wobble {
      --wobble-fac: 1.0;
      --wobble-delay: 1s;

      rotate: calc(var(--wobble-fac) * 10deg);

      transform: translateY(0px);
      transform-box: fill-box;
      transform-origin: center 60%;

    }

    .wobble:nth-child(1) {
      --wobble-fac: 0.7deg;
    }

    .wobble:nth-child(2) {
      --wobble-fac: 1.1deg;
    }

    .wobble:nth-child(3) {
      --wobble-fac: 1.4deg;
    }

    .wobble:nth-child(4) {
      --wobble-fac: 0.3deg;
    }

    .wobble:nth-child(5) {
      --wobble-fac: 1.4deg;
    }

    .wobble:nth-child(6) {
      --wobble-fac: 0.3deg;
    }

    @media screen and (prefers-reduced-motion: no-preference) {
      .wobble {
        animation: wobble 1s 0s ease;
        /* animation-delay: calc(var(--wobble-delay) + 0.5s * var(--wobble-fac)); */
      }
    }

    @keyframes wobble {
      32% {
        rotate: calc(var(--wobble-fac) * var(--wobble-amount) + 0deg);
      }

      34% {
        transform: scale(1.1) translateY(0px);
        rotate: calc(var(--wobble-fac) * var(--wobble-amount) + -20deg);
      }

      36% {
        rotate: calc(var(--wobble-fac) * var(--wobble-amount) + 0deg);
      }

      38% {
        transform: scale(0.8) translateY(10px);
        rotate: calc(var(--wobble-fac) * var(--wobble-amount) + 20deg);
      }

      40% {
        rotate: calc(var(--wobble-fac) * var(--wobble-amount) + 0deg);
        transform: translateX(10px) translateY(5px);
      }
    }
  </style>
  <defs
     id="defs17">
    <pattern
       id="fleur-delish"
       width="60"
       height="60"
       patternUnits="userSpaceOnUse">
      <g
         style="rotate: 45deg;"
         id="g14">
        <text
           x="10"
           y="20"
           id="text4">
          🥣
        </text>
        <text
           x="20"
           y="20"
           id="text6">
          🌯
        </text>
        <text
           x="30"
           y="20"
           id="text8">
          ⏲️
        </text>
        <text
           x="40"
           y="20"
           id="text10">
          🍅
        </text>
        <text
           x="50"
           y="20"
           id="text12">
          🔪
        </text>
      </g>
    </pattern>
    <filter
       style="color-interpolation-filters:sRGB;"
       inkscape:label="Drop Shadow"
       id="filter19650"
       x="-0.0011566374"
       y="-4.5192395e-05"
       width="1.0011628"
       height="1.0085684">
      <feFlood
         flood-opacity="0.59514925373134331"
         flood-color="rgb(74,78,105)"
         result="flood"
         id="feFlood19640" />
      <feComposite
         in="flood"
         in2="SourceGraphic"
         operator="out"
         result="composite1"
         id="feComposite19642" />
      <feGaussianBlur
         in="composite1"
         stdDeviation="0.0011105278"
         result="blur"
         id="feGaussianBlur19644" />
      <feOffset
         dx="-0.5"
         dy="0.5"
         result="offset"
         id="feOffset19646" />
      <feComposite
         in="offset"
         in2="SourceGraphic"
         operator="atop"
         result="composite2"
         id="feComposite19648" />
    </filter>
    <filter
       style="color-interpolation-filters:sRGB;"
       inkscape:label="Drop Shadow"
       id="filter42212"
       x="-0.0011566374"
       y="-4.5192398e-05"
       width="1.0011628"
       height="1.0085684">
      <feFlood
         flood-opacity="0.59514925373134331"
         flood-color="rgb(74,78,105)"
         result="flood"
         id="feFlood42202" />
      <feComposite
         in="flood"
         in2="SourceGraphic"
         operator="out"
         result="composite1"
         id="feComposite42204" />
      <feGaussianBlur
         in="composite1"
         stdDeviation="0.0011105278"
         result="blur"
         id="feGaussianBlur42206" />
      <feOffset
         dx="-0.5"
         dy="0.5"
         result="offset"
         id="feOffset42208" />
      <feComposite
         in="offset"
         in2="SourceGraphic"
         operator="atop"
         result="composite2"
         id="feComposite42210" />
    </filter>
  </defs>
  <rect
     width="814"
     height="250"
     class="foodgrid"
     fill="url(#fleur-delish)"
     id="rect107"
     x="0"
     y="0"
     style="display:inline;opacity:1;fill:#fefae0;fill-opacity:1"
     inkscape:label="background" />
  <g
     id="g25454"
     transform="matrix(1.356378,0.11757379,-0.11757379,1.356378,476.04843,114.70729)"
     style="display:inline;opacity:1;fill:#d4a373;fill-opacity:1"
     inkscape:label="clouds">
    <path
       id="path22995"
       style="fill:#faedcd;fill-opacity:1;stroke-width:0.265029"
       d="M 39.914228,247.73026 A 100.86703,100.86703 0 0 0 111.59629,206.2985 100.86703,100.86703 0 0 0 120.1055,191.77276 100.86703,100.86703 0 0 0 235.8107,155.84122 100.86703,100.86703 0 0 0 250.2105,126.49771 100.86703,100.86703 0 0 0 335.46968,84.681861 100.86703,100.86703 0 0 0 312.51871,-56.107056 100.86703,100.86703 0 0 0 171.72981,-33.15602 100.86703,100.86703 0 0 0 157.19047,-3.8226562 100.86703,100.86703 0 0 0 72.069427,38.003555 100.86703,100.86703 0 0 0 63.399224,52.474603 100.86703,100.86703 0 0 0 -52.143584,88.460619 100.86703,100.86703 0 0 0 -29.192549,229.2495 100.86703,100.86703 0 0 0 39.914284,247.73028 Z"
       inkscape:label="path22995" />
    <path
       id="path22995-16"
       style="display:inline;opacity:1;fill:#e9edc9;fill-opacity:1;stroke-width:0.28937"
       d="m -41.685101,-263.80418 a 110.13083,110.13083 0 0 0 -72.675159,39.65909 110.13083,110.13083 0 0 0 -138.70557,35.2369 110.13083,110.13083 0 0 0 -3.63548,5.89009 110.13083,110.13083 0 0 0 -151.96528,3.30281 110.13083,110.13083 0 0 0 -32.0789,71.33517 110.13083,110.13083 0 0 0 -52.47381,127.150495 110.13083,110.13083 0 0 0 136.58858,74.839337 110.13083,110.13083 0 0 0 54.60514,-36.274341 110.13083,110.13083 0 0 0 145.18138,-31.775712 110.13083,110.13083 0 0 0 9.29271,-15.8997677 110.13083,110.13083 0 0 0 125.742197,-40.6150803 110.13083,110.13083 0 0 0 8.689912,-14.657296 110.13083,110.13083 0 0 0 73.77253,-45.361132 110.13083,110.13083 0 0 0 -26.674977,-153.447183 110.13083,110.13083 0 0 0 -75.663273,-19.38338 z"
       inkscape:label="path22995-16" />
  </g>
  <text
     x="407.922"
     y="142.62199"
     class="title"
     id="text113"
     style="font-size:64px;display:none;mix-blend-mode:normal;filter:url(#filter19650)"
     inkscape:label="title-text-backup"
     sodipodi:insensitive="true"><tspan
       style="font-style:normal;font-variant:normal;font-weight:600;font-stretch:normal;font-size:64px;font-family:Lato;-inkscape-font-specification:'Lato Semi-Bold';text-align:center;text-anchor:middle;fill:#b36a5e;fill-opacity:1"
       id="tspan3591">Astro Cooklang</tspan></text>
  <g
     aria-label="Astro Cooklang"
     id="text36986"
     style="font-size:64px;display:inline;filter:url(#filter42212);fill:#4a4e69;fill-opacity:1"
     class="title"
     inkscape:label="title-text">
    <path
       d="m 219.90605,125.34199 -6.336,-16.832 q -0.768,-1.952 -1.568,-4.96 -0.352,1.504 -0.768,2.784 -0.416,1.248 -0.768,2.208 l -6.336,16.8 z m 14.176,17.28 h -5.792 q -0.992,0 -1.6,-0.48 -0.608,-0.512 -0.928,-1.248 l -3.84,-10.176 h -19.84 l -3.84,10.176 q -0.256,0.64 -0.896,1.184 -0.64,0.544 -1.6,0.544 h -5.792 l 18.272,-46.079996 h 7.584 z"
       style="font-weight:600;font-family:Lato;-inkscape-font-specification:'Lato Semi-Bold';text-align:center;text-anchor:middle;fill:#4a4e69;fill-opacity:1"
       id="path37037" />
    <path
       d="m 257.66608,115.90199 q -0.256,0.448 -0.576,0.64 -0.32,0.192 -0.8,0.192 -0.544,0 -1.184,-0.32 -0.64,-0.352 -1.504,-0.768 -0.864,-0.416 -2.048,-0.736 -1.152,-0.352 -2.72,-0.352 -1.28,0 -2.336,0.32 -1.024,0.288 -1.76,0.864 -0.704,0.544 -1.088,1.312 -0.384,0.736 -0.384,1.6 0,1.152 0.704,1.92 0.704,0.768 1.856,1.344 1.152,0.544 2.624,0.992 1.472,0.448 3.008,0.96 1.536,0.512 3.008,1.184 1.472,0.672 2.624,1.664 1.152,0.96 1.856,2.368 0.704,1.376 0.704,3.36 0,2.304 -0.832,4.256 -0.832,1.952 -2.432,3.392 -1.6,1.44 -4,2.24 -2.368,0.8 -5.44,0.8 -1.696,0 -3.296,-0.32 -1.568,-0.288 -3.008,-0.8 -1.408,-0.544 -2.656,-1.28 -1.216,-0.736 -2.176,-1.6 l 1.6,-2.624 q 0.288,-0.48 0.704,-0.736 0.448,-0.288 1.088,-0.288 0.672,0 1.312,0.448 0.672,0.416 1.536,0.928 0.896,0.512 2.144,0.96 1.248,0.416 3.104,0.416 1.536,0 2.656,-0.352 1.12,-0.384 1.856,-1.024 0.736,-0.64 1.088,-1.44 0.352,-0.832 0.352,-1.76 0,-1.248 -0.704,-2.048 -0.704,-0.8 -1.888,-1.376 -1.152,-0.576 -2.656,-1.024 -1.472,-0.448 -3.008,-0.96 -1.536,-0.512 -3.04,-1.184 -1.472,-0.672 -2.656,-1.696 -1.152,-1.056 -1.856,-2.528 -0.704,-1.504 -0.704,-3.648 0,-1.952 0.768,-3.712 0.8,-1.76 2.304,-3.104 1.536,-1.344 3.744,-2.112 2.24,-0.8 5.152,-0.8 3.296,0 5.984,1.056 2.688,1.056 4.512,2.88 z"
       style="font-weight:600;font-family:Lato;-inkscape-font-specification:'Lato Semi-Bold';text-align:center;text-anchor:middle;fill:#4a4e69;fill-opacity:1"
       id="path37039" />
    <path
       d="m 276.57812,143.13399 q -4.064,0 -6.272,-2.272 -2.176,-2.304 -2.176,-6.464 v -19.008 h -3.584 q -0.576,0 -0.992,-0.352 -0.416,-0.384 -0.416,-1.12 v -2.784 l 5.28,-0.768 1.504,-9.44 q 0.16,-0.544 0.544,-0.864 0.384,-0.351996 1.024,-0.351996 h 3.52 v 10.719996 h 9.056 v 4.96 h -9.056 v 18.528 q 0,1.76 0.864,2.688 0.864,0.928 2.304,0.928 0.8,0 1.376,-0.192 0.576,-0.224 0.992,-0.448 0.416,-0.256 0.704,-0.448 0.32,-0.224 0.608,-0.224 0.576,0 0.928,0.64 l 2.048,3.36 q -1.6,1.408 -3.776,2.176 -2.176,0.736 -4.48,0.736 z"
       style="font-weight:600;font-family:Lato;-inkscape-font-specification:'Lato Semi-Bold';text-align:center;text-anchor:middle;fill:#4a4e69;fill-opacity:1"
       id="path37041" />
    <path
       d="m 296.00209,116.02999 q 1.536,-3.104 3.712,-4.864 2.176,-1.792 5.216,-1.792 1.056,0 1.984,0.256 0.928,0.224 1.664,0.704 l -0.48,5.184 q -0.128,0.544 -0.416,0.768 -0.256,0.192 -0.704,0.192 -0.48,0 -1.376,-0.16 -0.896,-0.192 -1.888,-0.192 -1.44,0 -2.56,0.416 -1.088,0.416 -1.984,1.216 -0.864,0.8 -1.536,1.952 -0.672,1.152 -1.248,2.624 v 20.288 h -6.88 v -32.64 h 4 q 1.088,0 1.504,0.416 0.416,0.384 0.576,1.376 z"
       style="font-weight:600;font-family:Lato;-inkscape-font-specification:'Lato Semi-Bold';text-align:center;text-anchor:middle;fill:#4a4e69;fill-opacity:1"
       id="path37043" />
    <path
       d="m 326.11406,109.46999 q 3.616,0 6.528,1.184 2.944,1.184 4.992,3.36 2.08,2.176 3.2,5.28 1.12,3.104 1.12,6.976 0,3.872 -1.12,6.976 -1.12,3.104 -3.2,5.312 -2.048,2.176 -4.992,3.36 -2.912,1.184 -6.528,1.184 -3.648,0 -6.592,-1.184 -2.912,-1.184 -4.992,-3.36 -2.08,-2.208 -3.2,-5.312 -1.12,-3.104 -1.12,-6.976 0,-3.872 1.12,-6.976 1.12,-3.104 3.2,-5.28 2.08,-2.176 4.992,-3.36 2.944,-1.184 6.592,-1.184 z m 0,28.256 q 4.416,0 6.56,-2.944 2.176,-2.976 2.176,-8.48 0,-5.504 -2.176,-8.48 -2.144,-3.008 -6.56,-3.008 -4.48,0 -6.656,3.008 -2.176,2.976 -2.176,8.48 0,5.504 2.176,8.48 2.176,2.944 6.656,2.944 z"
       style="font-weight:600;font-family:Lato;-inkscape-font-specification:'Lato Semi-Bold';text-align:center;text-anchor:middle;fill:#4a4e69;fill-opacity:1"
       id="path37045" />
    <path
       d="m 397.76204,132.34999 q 0.608,0 1.056,0.48 l 2.976,3.232 q -2.816,3.392 -6.912,5.248 -4.096,1.824 -9.792,1.824 -5.056,0 -9.152,-1.728 -4.064,-1.76 -6.944,-4.864 -2.88,-3.136 -4.448,-7.456 -1.536,-4.32 -1.536,-9.504 0,-5.184 1.632,-9.504 1.664,-4.352 4.64,-7.456 3.008,-3.135996 7.168,-4.863996 4.192,-1.728 9.216,-1.728 4.992,0 8.8,1.632 3.84,1.6 6.656,4.287996 l -2.464,3.488 q -0.256,0.352 -0.608,0.608 -0.352,0.256 -0.96,0.256 -0.64,0 -1.472,-0.576 -0.8,-0.608 -2.08,-1.312 -1.248,-0.736 -3.168,-1.312 -1.888,-0.608 -4.736,-0.608 -3.296,0 -6.048,1.152 -2.752,1.152 -4.736,3.36 -1.984,2.208 -3.104,5.376 -1.088,3.168 -1.088,7.2 0,4.064 1.152,7.264 1.152,3.168 3.168,5.376 2.016,2.176 4.736,3.328 2.72,1.152 5.856,1.152 1.92,0 3.424,-0.192 1.536,-0.224 2.816,-0.672 1.28,-0.48 2.4,-1.184 1.152,-0.704 2.272,-1.728 0.64,-0.576 1.28,-0.576 z"
       style="font-weight:600;font-family:Lato;-inkscape-font-specification:'Lato Semi-Bold';text-align:center;text-anchor:middle;fill:#4a4e69;fill-opacity:1"
       id="path37047" />
    <path
       d="m 420.45,109.46999 q 3.616,0 6.528,1.184 2.944,1.184 4.992,3.36 2.08,2.176 3.2,5.28 1.12,3.104 1.12,6.976 0,3.872 -1.12,6.976 -1.12,3.104 -3.2,5.312 -2.048,2.176 -4.992,3.36 -2.912,1.184 -6.528,1.184 -3.648,0 -6.592,-1.184 -2.912,-1.184 -4.992,-3.36 -2.08,-2.208 -3.2,-5.312 -1.12,-3.104 -1.12,-6.976 0,-3.872 1.12,-6.976 1.12,-3.104 3.2,-5.28 2.08,-2.176 4.992,-3.36 2.944,-1.184 6.592,-1.184 z m 0,28.256 q 4.416,0 6.56,-2.944 2.176,-2.976 2.176,-8.48 0,-5.504 -2.176,-8.48 -2.144,-3.008 -6.56,-3.008 -4.48,0 -6.656,3.008 -2.176,2.976 -2.176,8.48 0,5.504 2.176,8.48 2.176,2.944 6.656,2.944 z"
       style="font-weight:600;font-family:Lato;-inkscape-font-specification:'Lato Semi-Bold';text-align:center;text-anchor:middle;fill:#4a4e69;fill-opacity:1"
       id="path37049" />
    <path
       d="m 456.99394,109.46999 q 3.616,0 6.528,1.184 2.944,1.184 4.992,3.36 2.08,2.176 3.2,5.28 1.12,3.104 1.12,6.976 0,3.872 -1.12,6.976 -1.12,3.104 -3.2,5.312 -2.048,2.176 -4.992,3.36 -2.912,1.184 -6.528,1.184 -3.648,0 -6.592,-1.184 -2.912,-1.184 -4.992,-3.36 -2.08,-2.208 -3.2,-5.312 -1.12,-3.104 -1.12,-6.976 0,-3.872 1.12,-6.976 1.12,-3.104 3.2,-5.28 2.08,-2.176 4.992,-3.36 2.944,-1.184 6.592,-1.184 z m 0,28.256 q 4.416,0 6.56,-2.944 2.176,-2.976 2.176,-8.48 0,-5.504 -2.176,-8.48 -2.144,-3.008 -6.56,-3.008 -4.48,0 -6.656,3.008 -2.176,2.976 -2.176,8.48 0,5.504 2.176,8.48 2.176,2.944 6.656,2.944 z"
       style="font-weight:600;font-family:Lato;-inkscape-font-specification:'Lato Semi-Bold';text-align:center;text-anchor:middle;fill:#4a4e69;fill-opacity:1"
       id="path37051" />
    <path
       d="m 486.30589,95.261994 v 27.455996 h 1.472 q 0.704,0 1.152,-0.192 0.448,-0.192 0.928,-0.8 l 9.152,-10.464 q 0.48,-0.64 1.056,-0.96 0.576,-0.32 1.472,-0.32 h 6.24 l -11.008,12.416 q -0.96,1.248 -2.112,1.984 0.64,0.448 1.12,1.024 0.48,0.544 0.928,1.248 l 11.744,15.968 h -6.144 q -0.832,0 -1.44,-0.256 -0.576,-0.288 -1.024,-1.024 l -9.44,-12.8 q -0.48,-0.736 -0.96,-0.928 -0.48,-0.224 -1.44,-0.224 h -1.696 v 15.232 h -6.88 V 95.261994 Z"
       style="font-weight:600;font-family:Lato;-inkscape-font-specification:'Lato Semi-Bold';text-align:center;text-anchor:middle;fill:#4a4e69;fill-opacity:1"
       id="path37053" />
    <path
       d="m 519.84185,95.261994 v 47.359996 h -6.88 V 95.261994 Z"
       style="font-weight:600;font-family:Lato;-inkscape-font-specification:'Lato Semi-Bold';text-align:center;text-anchor:middle;fill:#4a4e69;fill-opacity:1"
       id="path37055" />
    <path
       d="m 545.79387,128.34999 q -3.68,0.128 -6.208,0.608 -2.528,0.448 -4.096,1.184 -1.568,0.704 -2.272,1.696 -0.672,0.992 -0.672,2.176 0,1.152 0.352,1.984 0.384,0.8 1.024,1.344 0.672,0.512 1.536,0.768 0.896,0.224 1.952,0.224 2.688,0 4.608,-0.992 1.952,-1.024 3.776,-2.944 z m -18.24,-13.824 q 5.536,-5.152 13.184,-5.152 2.816,0 4.992,0.928 2.208,0.896 3.68,2.56 1.504,1.664 2.272,3.968 0.8,2.272 0.8,5.056 v 20.736 h -3.072 q -0.992,0 -1.504,-0.288 -0.512,-0.32 -0.864,-1.248 l -0.672,-2.656 q -1.248,1.12 -2.464,2.016 -1.216,0.864 -2.528,1.472 -1.28,0.608 -2.784,0.896 -1.472,0.32 -3.264,0.32 -1.984,0 -3.712,-0.544 -1.696,-0.544 -2.944,-1.632 -1.248,-1.12 -1.984,-2.752 -0.704,-1.632 -0.704,-3.84 0,-1.888 0.992,-3.68 1.024,-1.792 3.328,-3.2 2.336,-1.44 6.112,-2.368 3.808,-0.928 9.376,-1.056 v -2.176 q 0,-3.52 -1.504,-5.248 -1.504,-1.728 -4.416,-1.728 -1.984,0 -3.328,0.512 -1.344,0.48 -2.336,1.056 -0.992,0.576 -1.76,1.088 -0.768,0.48 -1.632,0.48 -0.704,0 -1.216,-0.352 -0.48,-0.384 -0.8,-0.928 z"
       style="font-weight:600;font-family:Lato;-inkscape-font-specification:'Lato Semi-Bold';text-align:center;text-anchor:middle;fill:#4a4e69;fill-opacity:1"
       id="path37057" />
    <path
       d="m 566.9459,114.30199 q 1.056,-1.088 2.176,-1.952 1.152,-0.896 2.432,-1.536 1.28,-0.64 2.72,-0.992 1.44,-0.352 3.136,-0.352 2.688,0 4.704,0.896 2.048,0.896 3.424,2.528 1.408,1.632 2.112,3.936 0.704,2.272 0.704,5.024 v 20.768 h -6.848 v -20.768 q 0,-3.296 -1.536,-5.12 -1.504,-1.824 -4.608,-1.824 -2.304,0 -4.288,1.056 -1.952,1.056 -3.68,2.88 v 23.776 h -6.88 v -32.64 h 4.16 q 1.408,0 1.792,1.312 z"
       style="font-weight:600;font-family:Lato;-inkscape-font-specification:'Lato Semi-Bold';text-align:center;text-anchor:middle;fill:#4a4e69;fill-opacity:1"
       id="path37059" />
    <path
       d="m 608.06595,126.01399 q 3.2,0 4.8,-1.632 1.6,-1.632 1.6,-4.256 0,-2.688 -1.6,-4.256 -1.6,-1.568 -4.8,-1.568 -3.168,0 -4.8,1.568 -1.6,1.568 -1.6,4.256 0,1.28 0.416,2.368 0.416,1.088 1.216,1.888 0.8,0.768 1.984,1.216 1.216,0.416 2.784,0.416 z m 9.568,18.208 q 0,-1.088 -0.64,-1.728 -0.608,-0.672 -1.664,-1.024 -1.056,-0.384 -2.464,-0.544 -1.408,-0.192 -3.008,-0.256 -1.568,-0.096 -3.232,-0.16 -1.632,-0.096 -3.168,-0.32 -1.536,0.8 -2.528,1.92 -0.96,1.12 -0.96,2.592 0,0.96 0.48,1.792 0.512,0.832 1.536,1.44 1.056,0.608 2.656,0.96 1.632,0.352 3.904,0.352 4.544,0 6.816,-1.408 2.272,-1.408 2.272,-3.616 z m 6.912,-33.056 v 2.56 q 0,1.28 -1.536,1.568 l -3.264,0.544 q 0.832,1.856 0.832,4.128 0,2.4 -0.96,4.352 -0.928,1.952 -2.592,3.328 -1.664,1.376 -3.968,2.112 -2.304,0.736 -4.992,0.736 -1.024,0 -2.016,-0.096 -0.96,-0.128 -1.888,-0.32 -0.928,0.544 -1.376,1.152 -0.448,0.608 -0.448,1.248 0,1.056 0.928,1.568 0.928,0.512 2.432,0.736 1.536,0.224 3.488,0.288 1.952,0.064 3.968,0.224 2.016,0.16 3.968,0.544 1.952,0.352 3.456,1.216 1.536,0.832 2.464,2.272 0.928,1.44 0.928,3.744 0,2.112 -1.056,4.128 -1.056,2.016 -3.072,3.584 -1.984,1.568 -4.864,2.496 -2.88,0.96 -6.56,0.96 -3.648,0 -6.368,-0.704 -2.688,-0.704 -4.512,-1.92 -1.792,-1.184 -2.688,-2.752 -0.864,-1.568 -0.864,-3.264 0,-2.304 1.44,-3.936 1.472,-1.632 3.968,-2.56 -1.344,-0.64 -2.176,-1.76 -0.8,-1.12 -0.8,-2.944 0,-1.44 1.056,-3.008 1.056,-1.568 3.168,-2.656 -2.432,-1.344 -3.84,-3.552 -1.408,-2.24 -1.408,-5.216 0,-2.432 0.928,-4.384 0.96,-1.952 2.656,-3.328 1.696,-1.376 4,-2.112 2.336,-0.736 5.088,-0.736 4.224,0 7.36,1.76 z"
       style="font-weight:600;font-family:Lato;-inkscape-font-specification:'Lato Semi-Bold';text-align:center;text-anchor:middle;fill:#4a4e69;fill-opacity:1"
       id="path37061" />
  </g>
</svg>
